{"title":"Paul.2011.EXTENDED.BRRip.XviD-RLF","uid":6466222,"size":750910501,"categoryP":"video","categoryS":"movies","magnet":"?xt=urn:btih:c2f4320a9fcdd3e174888879b8bb241e52f9131c&amp;dn=Paul.2011.EXTENDED.BRRip.XviD-RLF&amp;tr=udp%3A%2F%2Ftracker.openbittorrent.com%3A80&amp;tr=udp%3A%2F%2Fopen.demonii.com%3A1337&amp;tr=udp%3A%2F%2Ftracker.coppersurfer.tk%3A6969&amp;tr=udp%3A%2F%2Fexodus.desync.com%3A6969","seeders":0,"leechers":1,"uploader":"rlf-rls","files":-1,"time":1307926042,"description":"                Paul.2011.EXTENDED.BRRip.XviD-RLF\n                ~~~~~~~~~~~~~~~~~~~~~~~~~~~~~~~~~\n                                           \n\n                            General:\n\n\n         Complete name                    : rlf-paul.avi\n         Format                           : AVI\n         Format/Info                      : Audio Video Interleave\n         File size                        : 706 MiB\n         Duration                         : 1h 49mn\n         Overall bit rate                 : 904 Kbps            \n         Language                         : English\n         Subs                             : Polish, English\n         Encoder                          : Ralf\n\n                             Video:\n\n         Format                           : MPEG-4 Visual\n         Format profile                   : Advanced Simple@L5\n         Format settings, BVOP            : 2\n         Format settings, QPel            : No\n         Format settings, GMC             : No warppoints\n         Format settings, Matrix          : H.263\n         Muxing mode                      : Packed bitstream\n         Codec ID/Hint                    : XviD\n         Duration                         : 1h 49mn\n         Bit rate                         : 763 Kbps\n         Width                            : 688 pixels\n         Height                           : 352 pixels\n         Display aspect ratio             : 1.955\n         Frame rate                       : 23.976 fps\n         Color space                      : YUV\n         Chroma subsampling               : 4:2:0\n         Bit depth                        : 8 bits\n         Scan type                        : Progressive\n         Bits/(Pixel*Frame)               : 0.131\n         Stream size                      : 596 MiB (84%)\n         Writing library                  : XviD 1.2.1\n\n                             Audio:\n\n         Format                           : MPEG Audio\n         Format profile                   : Layer 3\n         Codec ID/Hint                    : MP3\n         Duration                         : 1h 49mn\n         Bit rate mode                    : Constant\n         Bit rate                         : 128 Kbps\n         Channel(s)                       : 2 channels\n         Sampling rate                    : 48.0 KHz\n         Stream size                      : 100 MiB (14%)\n         Alignment                        : Split accross interleaves\n         Interleave, duration             : 24 ms (0.58 video frame)\n         Writing library                  : LAME3.98.4 \n\n\n\n                           MOVIE INFO:\n\n         Two British comic-book geeks traveling across the U.S. \n                encounter an alien outside Area 51.\n                               \n              &lt;a href=&quot; http://www.imdb.com/title/tt1092026/&quot; rel=&quot;nofollow&quot; target=&quot;_NEW&quot;&gt; http://www.imdb.com/title/tt1092026/&lt;/a&gt;\n\n\n                             SOURCE:\n\n              AVCHD 720p.BluRay.x264 / KinoMania (THX)\n\n\n       &lt;a href=&quot; http://www.leetleech.org/images/67123125011905363942.png&quot; rel=&quot;nofollow&quot; target=&quot;_NEW&quot;&gt; http://www.leetleech.org/images/67123125011905363942.png&lt;/a&gt;\n       &lt;a href=&quot; http://www.leetleech.org/images/29230689651190444618.png&quot; rel=&quot;nofollow&quot; target=&quot;_NEW&quot;&gt; http://www.leetleech.org/images/29230689651190444618.png&lt;/a&gt;\n       &lt;a href=&quot; http://www.leetleech.org/images/63601991419175463011.png&quot; rel=&quot;nofollow&quot; target=&quot;_NEW&quot;&gt; http://www.leetleech.org/images/63601991419175463011.png&lt;/a&gt;\n       &lt;a href=&quot; http://www.leetleech.org/images/08750770947477713787.png&quot; rel=&quot;nofollow&quot; target=&quot;_NEW&quot;&gt; http://www.leetleech.org/images/08750770947477713787.png&lt;/a&gt;\n       &lt;a href=&quot; http://www.leetleech.org/images/53434056858094944496.png&quot; rel=&quot;nofollow&quot; target=&quot;_NEW&quot;&gt; http://www.leetleech.org/images/53434056858094944496.png&lt;/a&gt;","torrent":{"xt":"urn:btih:c2f4320a9fcdd3e174888879b8bb241e52f9131c","amp;dn":"Paul.2011.EXTENDED.BRRip.XviD-RLF","amp;tr":["udp%3A%2F%2Ftracker.openbittorrent.com%3A80","udp%3A%2F%2Fopen.demonii.com%3A1337","udp%3A%2F%2Ftracker.coppersurfer.tk%3A6969","udp%3A%2F%2Fexodus.desync.com%3A6969"],"infoHash":"c2f4320a9fcdd3e174888879b8bb241e52f9131c","infoHashBuffer":{"type":"Buffer","data":[194,244,50,10,159,205,211,225,116,136,136,121,184,187,36,30,82,249,19,28]},"announce":[],"urlList":[]}}